HIERARCHY
ROOT Hips
{
	OFFSET 14.658700 -1.743397 44.686901
	CHANNELS 6 Xposition Yposition Zposition Zrotation Xrotation Yrotation
	JOINT Chest
	{
		OFFSET -0.825500 0.895800 5.069500
		CHANNELS 6 Xposition Yposition Zposition Zrotation Xrotation Yrotation
		JOINT Chest2
		{
			OFFSET 0.000000 0.000000 4.622200
			CHANNELS 6 Xposition Yposition Zposition Zrotation Xrotation Yrotation
			JOINT Neck
			{
				OFFSET 0.000000 0.000001 10.755798
				CHANNELS 6 Xposition Yposition Zposition Zrotation Xrotation Yrotation
				JOINT Head
				{
					OFFSET 0.000000 0.000000 2.173897
					CHANNELS 6 Xposition Yposition Zposition Zrotation Xrotation Yrotation
					End Site
					{
						OFFSET 0.000000 0.000001 10.006599
					}
				}
			}
			JOINT LeftCollar
			{
				OFFSET 2.539400 -1.380899 6.761002
				CHANNELS 6 Xposition Yposition Zposition Zrotation Xrotation Yrotation
				JOINT LeftShoulder
				{
					OFFSET 5.407000 0.000000 0.000000
					CHANNELS 6 Xposition Yposition Zposition Zrotation Xrotation Yrotation
					JOINT LeftElbow
					{
						OFFSET 0.000000 -0.000001 -10.687000
						CHANNELS 6 Xposition Yposition Zposition Zrotation Xrotation Yrotation
						JOINT LeftWrist
						{
							OFFSET 0.000000 -0.000001 -13.346901
							CHANNELS 6 Xposition Yposition Zposition Zrotation Xrotation Yrotation
							End Site
							{
								OFFSET 0.000000 -0.000000 -2.173901
							}
						}
					}
				}
			}
			JOINT RightCollar
			{
				OFFSET -2.411400 -2.842699 7.518600
				CHANNELS 6 Xposition Yposition Zposition Zrotation Xrotation Yrotation
				JOINT RightShoulder
				{
					OFFSET -4.245500 0.000000 0.000000
					CHANNELS 6 Xposition Yposition Zposition Zrotation Xrotation Yrotation
					JOINT RightElbow
					{
						OFFSET 0.000000 -0.000001 -10.446701
						CHANNELS 6 Xposition Yposition Zposition Zrotation Xrotation Yrotation
						JOINT RightWrist
						{
							OFFSET 0.000000 -0.000001 -12.218899
							CHANNELS 6 Xposition Yposition Zposition Zrotation Xrotation Yrotation
							End Site
							{
								OFFSET 0.000000 0.000000 -2.173901
							}
						}
					}
				}
			}
		}
	}
	JOINT LeftHip
	{
		OFFSET 2.346700 0.301800 -2.502800
		CHANNELS 6 Xposition Yposition Zposition Zrotation Xrotation Yrotation
		JOINT LeftKnee
		{
			OFFSET 0.000000 -0.000002 -20.597000
			CHANNELS 6 Xposition Yposition Zposition Zrotation Xrotation Yrotation
			JOINT LeftAnkle
			{
				OFFSET 0.000000 -0.000001 -17.157499
				CHANNELS 6 Xposition Yposition Zposition Zrotation Xrotation Yrotation
				End Site
				{
					OFFSET 0.000000 -9.063900 0.000001
				}
			}
		}
	}
	JOINT RightHip
	{
		OFFSET -1.908600 -0.007900 -2.706001
		CHANNELS 6 Xposition Yposition Zposition Zrotation Xrotation Yrotation
		JOINT RightKnee
		{
			OFFSET 0.000000 -0.000002 -20.198500
			CHANNELS 6 Xposition Yposition Zposition Zrotation Xrotation Yrotation
			JOINT RightAnkle
			{
				OFFSET 0.000000 -0.000001 -17.295700
				CHANNELS 6 Xposition Yposition Zposition Zrotation Xrotation Yrotation
				End Site
				{
					OFFSET 0.000000 -8.113500 0.000001
				}
			}
		}
	}
}
MOTION
Frames: 4
Frame Time: 0.041667
22.589502 30.039305 34.518898 -359.067197 3.942783 -5.204673 -0.825503 0.895798 5.069501 0.204278 -7.873478 7.221653 0.000002 -0.000001 4.622198 -1.746628 -2.605727 0.016815 -0.000004 0.000004 10.755810 58.106188 -14.609575 -11.706253 -0.000001 0.000002 2.173897 4.927670 -1.040506 5.873671 2.539400 -1.380900 6.761003 12.264554 -7.116220 5.657746 5.407002 -0.000001 0.000007 177.435815 -139.038473 97.825787 -0.000002 0.000001 -10.686995 94.445206 -8.260602 17.339851 0.000004 -0.000003 -13.346894 -21.353932 -3.756841 24.840515 -2.411399 -2.842699 7.518605 0.718465 -18.364289 37.624493 -4.245492 0.000000 0.000001 -49.474304 -113.524724 26.520095 0.000005 -0.000003 -10.446700 -22.291461 -121.145112 -38.350395 0.000005 -0.000003 -12.218904 -23.966835 -4.226953 72.245957 2.346698 0.301798 -2.502797 61.116608 -34.379948 31.578447 0.000003 0.000003 -20.596996 51.727898 156.959946 -67.192334 0.000001 0.000003 -17.157497 37.123963 -15.449717 23.857149 -1.908603 -0.007899 -2.706000 -81.106652 -44.943567 -64.614853 0.000001 -0.000006 -20.198507 140.615058 33.416291 -135.433144 0.000000 -0.000001 -17.295702 -17.411807 11.451371 8.466277
22.662500 29.986105 34.180992 -358.510209 3.894331 -4.994435 -0.825498 0.895803 5.069499 -0.376534 -7.862854 7.084918 0.000001 0.000002 4.622198 -1.538892 -2.651574 -0.003058 -0.000003 -0.000004 10.755796 57.914301 -14.634418 -11.680236 -0.000001 -0.000005 2.173903 4.934750 -0.996308 5.698414 2.539399 -1.380903 6.760995 12.287868 -7.215034 5.606888 5.407000 -0.000002 0.000002 177.096642 -139.554275 97.757554 -0.000000 -0.000004 -10.686992 93.775642 -8.561789 17.330522 0.000006 0.000000 -13.346891 -20.332568 -3.644078 24.642281 -2.411406 -2.842704 7.518599 0.489289 -18.435201 37.346078 -4.245500 0.000003 -0.000004 -48.940539 -114.146456 26.708630 0.000002 -0.000007 -10.446692 -22.327697 -120.705767 -38.897784 0.000005 0.000003 -12.218896 -23.891250 -4.217197 72.325064 2.346698 0.301806 -2.502797 61.299787 -34.869458 31.865899 -0.000004 0.000001 -20.596994 51.353320 158.274061 -66.039542 -0.000000 -0.000004 -17.157499 37.146237 -15.331237 24.146307 -1.908597 -0.007897 -2.706004 -81.232123 -44.872827 -65.048871 -0.000002 -0.000001 -20.198509 140.985186 34.507127 -136.114564 0.000000 -0.000000 -17.295704 -17.498374 11.704227 9.621816
22.747000 29.925108 33.823891 -358.117774 3.672270 -5.012216 -0.825505 0.895799 5.069500 -0.769284 -7.659940 7.253891 -0.000000 0.000004 4.622195 -1.261531 -2.700633 -0.028277 -0.000002 -0.000002 10.755806 57.696616 -14.722789 -11.707915 0.000005 0.000004 2.173907 4.965273 -0.978535 5.580622 2.539404 -1.380903 6.761004 12.193280 -7.381939 5.355102 5.407001 0.000001 0.000004 176.955243 -139.804069 97.860737 -0.000001 -0.000005 -10.687000 92.962338 -8.777597 17.308090 0.000006 -0.000000 -13.346902 -19.473187 -3.571428 24.458668 -2.411400 -2.842705 7.518604 0.395056 -18.622041 37.357744 -4.245497 0.000003 0.000002 -47.845434 -114.510813 27.516737 0.000005 0.000008 -10.446701 -20.976430 -119.537108 -38.392452 0.000005 0.000008 -12.218906 -22.946091 -4.257911 72.224688 2.346692 0.301800 -2.502800 61.748783 -35.016573 32.153682 0.000001 0.000003 -20.596991 51.000087 159.856124 -64.939670 -0.000000 0.000000 -17.157499 37.295066 -15.162593 24.406475 -1.908602 -0.007898 -2.706004 -81.089536 -45.041703 -65.294027 -0.000000 -0.000003 -20.198509 140.757221 34.604081 -136.288188 0.000001 -0.000002 -17.295700 -18.248232 13.088312 9.253232
22.830801 29.861506 33.450691 -357.720011 3.412827 -4.937514 -0.825498 0.895801 5.069501 -1.175090 -7.457664 7.342593 -0.000000 0.000006 4.622197 -0.940177 -2.725953 -0.061800 -0.000007 0.000005 10.755802 57.346746 -14.754399 -11.746621 -0.000003 0.000001 2.173902 5.074072 -0.996810 5.526164 2.539402 -1.380897 6.760994 11.769983 -7.189524 5.465456 5.407002 0.000001 0.000004 176.691461 -139.482899 97.374510 -0.000001 0.000004 -10.686992 91.405225 -9.078404 17.143573 0.000002 -0.000007 -13.346904 -18.089264 -3.586572 24.274899 -2.411399 -2.842697 7.518600 0.270278 -18.108256 36.979962 -4.245496 0.000001 -0.000002 -47.822662 -115.050520 27.745849 0.000001 -0.000009 -10.446695 -21.387062 -119.231088 -38.867871 0.000005 0.000001 -12.218904 -22.815979 -4.284644 72.061303 2.346700 0.301804 -2.502797 61.983127 -35.326476 32.259936 0.000001 0.000001 -20.596991 50.765309 161.159024 -63.729674 -0.000002 -0.000002 -17.157495 37.089894 -14.824420 24.421249 -1.908596 -0.007896 -2.705999 -81.040597 -45.031704 -65.601091 0.000001 -0.000004 -20.198503 140.479725 34.621877 -136.354850 0.000001 -0.000001 -17.295704 -19.159234 14.741076 8.851575
